<svg xmlns="http://www.w3.org/2000/svg" viewBox="0 0 512 512" role="img" aria-label="틈틈">
  <rect width="512" height="512" fill="#2EA86A"/>
  <path fill="#FFFFFF" d="M132 121c-15 0-25 10-25 25v221c0 15 10 25 25 25h85c20 0 34-14 34-34v-49c0-19-13-34-34-34h-21c-7 0-12-5-12-12s5-12 12-12h120c7 0 12 5 12 12s-5 12-12 12h-21c-21 0-34 15-34 34v49c0 20 14 34 34 34h85c15 0 25-10 25-25V146c0-15-10-25-25-25h-85c-20 0-34 14-34 34v18c0 20 14 34 34 34h21c7 0 12 5 12 12s-5 12-12 12H196c-7 0-12-5-12-12s5-12 12-12h21c20 0 34-14 34-34v-18c0-20-14-34-34-34h-85z"/>
</svg>
