<svg xmlns="http://www.w3.org/2000/svg" width="24" height="24" viewBox="0 0 24 24" role="img" aria-label="KakaoTalk">
  <path fill="#191919" d="M22.125 0H1.875C.8394 0 0 .8394 0 1.875v20.25C0 23.1606.8394 24 1.875 24h20.25C23.1606 24 24 23.1606 24 22.125V1.875C24 .8394 23.1606 0 22.125 0zM12 18.75c-.591 0-1.1697-.0413-1.7317-.1209-.5626.3965-3.813 2.6797-4.1198 2.7225 0 0-.1258.0489-.2328-.0141s-.0876-.2282-.0876-.2282c.0322-.2198.8426-3.0183.992-3.5333-2.7452-1.36-4.5701-3.7686-4.5701-6.5135C2.25 6.8168 6.6152 3.375 12 3.375s9.75 3.4418 9.75 7.6875c0 4.2457-4.3652 7.6875-9.75 7.6875z"/>
</svg>
