<svg width="24" height="24" viewBox="0 0 24 24" fill="none" xmlns="http://www.w3.org/2000/svg">
  <path d="M21 12.79C20.84 14.49 20.2 16.11 19.16 17.47C18.11 18.82 16.7 19.85 15.1 20.43C13.49 21.01 11.75 21.12 10.08 20.75C8.41 20.37 6.88 19.53 5.67 18.33C4.47 17.12 3.63 15.59 3.25 13.92C2.88 12.25 2.99 10.51 3.57 8.9C4.15 7.3 5.18 5.89 6.53 4.84C7.89 3.8 9.51 3.16 11.21 3C10.21 4.35 9.73 6.01 9.86 7.68C9.98 9.35 10.7 10.93 11.89 12.11C13.07 13.3 14.65 14.02 16.32 14.14C17.99 14.27 19.65 13.79 21 12.79Z" stroke="currentColor" stroke-width="2" stroke-linecap="round" stroke-linejoin="round"/>
</svg>
